<svg width="52" height="44" viewBox="0 0 52 44" fill="none" xmlns="http://www.w3.org/2000/svg">
<path d="M26 0.187622C23.92 0.187622 21.84 1.11712 19.4062 2.50731C18.5694 2.98726 17.7373 3.47546 16.9102 3.97184C15.3225 4.91434 13.5403 5.9909 11.4603 7.06097C4.28431 10.7985 0 17.0356 0 23.7213C0 34.7997 11.6618 43.8124 26 43.8124C40.3382 43.8124 52 34.7997 52 23.7217C52 17.0291 47.7145 10.7985 40.5385 7.06137C37.9734 5.7305 36.025 4.567 34.2985 3.53756C33.5567 3.08297 32.8632 2.66778 32.1697 2.28672C29.8959 0.98956 28.08 0.187622 26 0.187622ZM26 1.85934C27.6778 1.85934 29.2102 2.52803 31.3109 3.73134C31.9418 4.099 32.6345 4.51337 33.3905 4.96106C35.0476 5.95069 37.0927 7.20762 39.7134 8.54459C46.321 11.9746 50.2665 17.6507 50.2665 23.7217C50.2665 33.8771 39.3815 42.1411 26 42.1411C12.6185 42.1411 1.73347 33.8771 1.73347 23.7217C1.73347 17.6507 5.67816 11.9742 12.2789 8.53119C14.3589 7.44122 16.2098 6.35206 17.825 5.38965C18.6847 4.88143 19.4959 4.39272 20.2796 3.95153C22.5327 2.69459 24.3218 1.85934 26 1.85934ZM27.6197 2.97653C27.4028 2.97612 27.2902 3.26943 27.4905 3.41V3.43681C28.8106 4.33481 29.9221 5.50608 30.7499 6.87125C31.5662 8.21967 32.0748 9.7317 32.2392 11.2994C32.2358 11.3274 32.2379 11.3558 32.2455 11.383C32.2531 11.4102 32.266 11.4356 32.2835 11.4578C32.3198 11.5036 32.3718 11.5341 32.4294 11.5435C32.4871 11.5529 32.5461 11.5405 32.5951 11.5086C32.6433 11.4776 32.6775 11.4291 32.6905 11.3733C33.3283 9.03981 32.9676 5.06181 27.7188 2.99603C27.6874 2.98354 27.6535 2.97693 27.6197 2.97653ZM25.7883 3.14147C25.6222 3.15447 25.4727 3.34865 25.5771 3.52415V3.55015C26.4224 4.87688 26.9621 6.37501 27.157 7.93603C27.3495 9.49144 27.191 11.0702 26.6931 12.5563C26.6098 12.7903 26.9076 12.991 27.0741 12.7968C28.5923 10.9248 29.9167 7.20803 25.9508 3.19672C25.9289 3.17698 25.9032 3.1619 25.8753 3.1524C25.8473 3.14291 25.8178 3.13919 25.7883 3.14147ZM24.2141 3.30803C24.1555 3.31591 24.1018 3.34481 24.063 3.38935C24.0241 3.4339 24.0027 3.49104 24.0029 3.55015C24.0118 5.13263 23.6676 6.69718 22.9954 8.12981C22.3145 9.57796 21.3262 10.8603 20.0992 11.8876C19.905 12.055 20.0578 12.3759 20.3072 12.2821C22.644 11.4062 25.7985 8.7855 24.4672 3.49693C24.4396 3.34662 24.3234 3.29097 24.2141 3.30803ZM22.1666 4.23509C22.1215 4.23691 22.0777 4.25065 22.0397 4.27492C22.0017 4.29918 21.9707 4.3331 21.9501 4.37322C21.239 5.82052 20.2284 7.10017 18.9853 8.12737C17.7249 9.16897 16.263 9.93918 14.6912 10.3898C14.4414 10.4633 14.4353 10.818 14.6985 10.8111C17.1945 10.9581 21.2087 9.84175 22.4079 4.49306C22.4469 4.32609 22.3072 4.22737 22.1666 4.23509ZM17.3863 18.4274C16.9174 18.4382 16.4542 18.5326 16.0184 18.7061C15.3258 18.9802 14.7291 19.4521 14.3028 20.063C13.8846 20.6638 13.6599 21.378 13.6589 22.1101C13.6589 23.0859 14.0603 24.0219 14.7753 24.7125C15.4903 25.4032 16.4596 25.7923 17.4716 25.7944C18.2244 25.7966 18.962 25.5821 19.5963 25.1765C20.2202 24.7783 20.711 24.203 21.006 23.5242C21.2962 22.8541 21.3733 22.111 21.227 21.3955C21.0773 20.6753 20.7134 20.0172 20.1829 19.5077C19.6426 18.9885 18.963 18.6376 18.2268 18.4977C17.9498 18.4444 17.6683 18.4208 17.3863 18.4274ZM34.5885 18.4274C34.1189 18.4373 33.6549 18.531 33.2183 18.7041C32.5243 18.9776 31.9263 19.4495 31.499 20.061C31.0796 20.6621 30.8541 21.3771 30.8531 22.1101C30.8514 23.0831 31.2496 24.017 31.9605 24.7077C32.6714 25.3983 33.6371 25.7887 34.6458 25.7944C35.3996 25.8006 36.1392 25.5896 36.7762 25.1866C37.403 24.791 37.8973 24.217 38.1956 23.5385C38.4885 22.8687 38.5682 22.1251 38.4239 21.4085C38.2768 20.687 37.9145 20.0269 37.3848 19.5154C36.8454 18.9942 36.166 18.6413 35.4295 18.4997C35.1525 18.4458 34.8706 18.4215 34.5885 18.4274ZM16.3719 19.5775C16.726 19.593 17.0623 19.7375 17.3172 19.9838C17.5179 20.1784 17.6536 20.425 17.7084 20.6939C17.7629 20.9632 17.7333 21.2427 17.6235 21.4946C17.5121 21.7494 17.327 21.9652 17.0922 22.1142C16.8535 22.2661 16.576 22.3461 16.2931 22.3445C15.9163 22.3437 15.5544 22.1976 15.2827 21.9366C15.151 21.8102 15.0461 21.6586 14.9742 21.4908C14.9023 21.3231 14.8649 21.1425 14.8643 20.96C14.8643 20.6858 14.9496 20.4181 15.1072 20.1906C15.2657 19.9631 15.4895 19.7855 15.7523 19.6811C15.9491 19.6027 16.1603 19.5674 16.3719 19.5775ZM33.5461 19.5775C33.6164 19.5812 33.6863 19.5897 33.7561 19.6031C34.0329 19.6561 34.2884 19.7883 34.4914 19.9838C34.6917 20.1784 34.8278 20.425 34.8827 20.6939C34.9371 20.9632 34.9075 21.2427 34.7977 21.4946C34.6863 21.7494 34.5013 21.9652 34.2664 22.1142C34.0295 22.2657 33.7504 22.3457 33.4665 22.3445H33.4531C33.0787 22.3401 32.7202 22.1922 32.4517 21.9313C32.3216 21.8051 32.218 21.6542 32.1472 21.4874C32.0763 21.3205 32.0395 21.1412 32.0389 20.96C32.0389 20.6858 32.123 20.4181 32.2806 20.1906C32.4391 19.9631 32.6641 19.7855 32.9266 19.6811C33.1233 19.6027 33.3346 19.5674 33.5461 19.5775ZM21.7843 27.6859C21.6358 27.6813 21.488 27.7096 21.3517 27.7687C21.216 27.8277 21.0958 27.9162 21.0007 28.0267C20.9207 28.1185 20.8634 28.2258 20.8321 28.3416C20.8009 28.457 20.7968 28.5781 20.8203 28.6954C21.1478 30.0137 21.9038 31.1963 22.9767 32.0713C23.8299 32.8444 24.9143 33.3144 26.0618 33.4087C27.2147 33.3096 28.3002 32.8387 29.1411 32.0717C30.214 31.1963 30.9693 30.0137 31.2963 28.6958C31.3214 28.579 31.3189 28.458 31.289 28.3424C31.2585 28.2258 31.2016 28.1178 31.1228 28.0267C31.0261 27.9167 30.9062 27.8294 30.7718 27.7712C30.6357 27.712 30.4884 27.6829 30.34 27.6859H21.7843ZM21.7843 28.4618L30.34 28.4744C30.3665 28.4713 30.3933 28.4753 30.4177 28.486C30.4421 28.4967 30.4633 28.5137 30.4789 28.5353C30.293 29.2583 29.9609 29.9355 29.5031 30.5252L29.4734 30.5008C28.5915 29.6907 27.4251 29.2296 26.2072 29.2101C25.5564 29.2154 24.9153 29.3604 24.3291 29.6334C23.7537 29.9003 23.243 30.2886 22.8321 30.7717C22.2629 30.1261 21.8542 29.3553 21.6389 28.5219C21.6458 28.5085 21.6734 28.4618 21.7843 28.4618ZM26.2421 29.8853C27.2805 29.915 28.2697 30.318 29.0156 31.0155L29.0493 31.0431C28.9055 31.1886 28.7527 31.3271 28.5923 31.4575C27.8951 32.105 27.0076 32.5103 26.0618 32.6133C25.1133 32.509 24.2247 32.0982 23.5308 31.4433C23.4643 31.389 23.399 31.3332 23.335 31.2759H23.3374C23.6845 30.8449 24.1241 30.4975 24.6236 30.2595C25.1293 30.018 25.6818 29.89 26.2421 29.8853Z" fill="currentColor"/>
</svg>
