<svg width="52" height="52" viewBox="0 0 52 52" fill="none" xmlns="http://www.w3.org/2000/svg">
<g clip-path="url(#clip0_541_142)">
<path d="M51.7575 9.24908C51.6161 9.13271 51.4366 9.07279 51.2537 9.0809C50.7516 9.0809 50.1028 9.42133 49.7534 9.60374L49.6153 9.67483C49.0295 9.9583 48.3919 10.1187 47.7417 10.1461C47.0772 10.167 46.4137 10.2131 45.7527 10.2842C41.3205 10.7396 39.3433 14.1371 37.4392 17.422C36.4024 19.2091 35.3316 21.0657 33.8634 22.4839C33.5599 22.778 33.2373 23.0526 32.8973 23.3045C31.3779 24.4339 29.4706 25.2403 27.9866 25.8111C26.5574 26.3575 24.997 26.8482 23.491 27.3231C22.1098 27.7578 20.8061 28.169 19.6073 28.6142C19.1425 28.7856 18.6733 28.9486 18.202 29.1037C17.11 29.458 16.3227 29.7294 15.1722 30.5216C14.7598 30.8017 14.3582 31.0975 13.9685 31.4084C13.0552 32.1371 12.2469 32.9884 11.5663 33.9381C10.9812 34.8142 10.3049 35.626 9.54891 36.3598C9.30597 36.597 8.87494 36.714 8.22941 36.714C7.47378 36.714 6.55769 36.558 5.58837 36.3931C4.58819 36.2164 3.55469 36.0478 2.66825 36.0478C1.94878 36.0478 1.39669 36.1656 0.985969 36.4024C0.985969 36.4024 0.292094 36.8066 0 37.3295L0.287219 37.4595C0.732589 37.7008 1.14495 37.9986 1.51409 38.3455C1.89907 38.7011 2.32788 39.0061 2.79012 39.2531C2.93841 39.3075 3.07247 39.3928 3.18419 39.5033C3.06394 39.6805 2.886 39.9092 2.69953 40.1533C1.677 41.4923 1.07981 42.3377 1.42188 42.7984C1.586 42.8837 1.76922 42.9252 1.95406 42.9191C4.18437 42.9191 5.38281 42.3398 6.89812 41.6057C7.33769 41.3936 7.78456 41.1751 8.31634 40.9496C9.20278 40.5653 10.1571 39.9518 11.169 39.3026C12.4934 38.4398 13.8779 37.5533 15.2218 37.126C16.326 36.7891 17.4763 36.6275 18.6306 36.647C20.0492 36.647 21.5422 36.8363 22.9816 37.0207C24.0545 37.1597 25.166 37.3011 26.2559 37.3669C26.6544 37.391 27.0535 37.4035 27.4527 37.4042C27.9626 37.4058 28.4721 37.3792 28.979 37.3246L29.1009 37.282C29.8659 36.8115 30.2242 35.8032 30.5707 34.8282C30.7946 34.2001 30.9827 33.6367 31.2804 33.2788C31.2979 33.2613 31.317 33.2455 31.3373 33.2312C31.3512 33.2235 31.3673 33.2207 31.383 33.2232C31.3986 33.2257 31.413 33.2334 31.4238 33.2451V33.2735C31.2471 37.087 29.7115 39.5086 28.1584 41.6609L27.1217 42.7724C27.1217 42.7724 28.5732 42.7724 29.3995 42.4531C32.4139 41.5525 34.6881 39.5671 36.3435 36.4004C36.752 35.5874 37.1171 34.7535 37.4376 33.902C37.466 33.8321 37.7268 33.7005 37.7016 34.0673C37.6931 34.1758 37.6854 34.296 37.6768 34.4224C37.6768 34.4963 37.6768 34.5727 37.6626 34.6491C37.6204 35.1812 37.4944 36.3049 37.4944 36.3049L38.4248 35.8065C40.6693 34.3886 42.3995 31.5274 43.7121 27.0757C44.2581 25.2208 44.6587 23.3789 45.0109 21.7567C45.433 19.8063 45.797 18.135 46.2134 17.4862C46.8674 16.4681 47.8656 15.78 48.8317 15.1121C48.9629 15.0219 49.0957 14.9346 49.2257 14.8387C50.4396 13.9864 51.647 13.0024 51.9135 11.1674V11.1268C52.106 9.75771 51.9431 9.40874 51.7575 9.24908Z" fill="currentColor"/>
</g>
<defs>
<clipPath id="clip0_541_142">
<rect width="52" height="52" fill="currentColor"/>
</clipPath>
</defs>
</svg>
