<svg width="52" height="52" viewBox="0 0 52 52" fill="none" xmlns="http://www.w3.org/2000/svg">
<g clip-path="url(#clip0_541_164)">
<path d="M47.8107 39.9108C44.978 39.8332 42.8151 40.0981 40.9646 40.8773C40.4393 41.0995 39.6016 41.1044 39.5159 41.7629C39.8048 42.066 39.849 42.5181 40.0794 42.8911C40.5206 43.6036 41.2665 44.562 41.9315 45.0653C42.6583 45.6129 43.4074 46.2 44.1866 46.6745C45.5735 47.5203 47.1209 48.0029 48.4538 48.8487C49.2411 49.3484 50.0215 49.9769 50.7898 50.5403C51.1692 50.8182 51.4247 51.2513 51.9163 51.426V51.3467C51.6575 51.0169 51.5909 50.5627 51.3528 50.2186L50.3055 49.1713C49.2818 47.8128 47.9822 46.6196 46.6017 45.6292C45.5004 44.8374 43.0345 43.7694 42.5758 42.4889L42.4949 42.408C43.2758 42.3191 44.1898 42.0367 44.9117 41.8429C46.1224 41.5192 47.205 41.6032 48.4538 41.2795L50.1455 40.7972V40.4751C49.5137 39.8275 49.0632 38.9691 48.3746 38.3821C46.5704 36.8461 44.6026 35.3129 42.5762 34.034C41.4525 33.3247 40.0639 32.8628 38.8724 32.2615C38.471 32.06 37.7678 31.9536 37.503 31.6172C36.8777 30.8206 36.5365 29.8098 36.0543 28.8799C35.0435 26.9327 34.0515 24.8081 33.1549 22.7593C32.5439 21.3631 32.1457 19.9855 31.384 18.7334C27.7278 12.7221 23.7924 9.09309 17.6954 5.52703C16.3974 4.76856 14.8358 4.46875 13.1852 4.07671L10.5271 3.91625C9.98601 3.69078 9.42417 3.029 8.91636 2.70684C6.89689 1.43 1.71558 -1.3455 0.21895 2.30425C-0.725175 4.60687 1.63148 6.85384 2.47404 8.02181C3.06595 8.83918 3.82279 9.75772 4.24489 10.6783C4.52439 11.2844 4.57192 11.8905 4.80998 12.5304C5.39417 14.1078 5.90483 15.8247 6.66208 17.2815C7.04436 18.0192 7.46645 18.7956 7.9507 19.4557C8.24604 19.8603 8.75507 20.0399 8.83632 20.6635C8.33786 21.3602 8.30942 22.4408 8.03032 23.3216C6.77176 27.2907 7.24789 32.2225 9.07764 35.1585C9.63948 36.0616 10.963 37.9941 12.7814 37.2531C14.3731 36.6039 14.0176 34.5966 14.473 32.8242C14.5762 32.4228 14.5129 32.1275 14.7144 31.8577V31.9386L16.1647 34.8363C17.2376 36.5645 19.14 38.3703 20.7541 39.5891C21.5905 40.2208 22.2491 41.3124 23.3313 41.6821V41.6012H23.2505C23.0409 41.2742 22.7126 41.1393 22.4461 40.8777C21.816 40.259 21.1148 39.4907 20.594 38.7831C19.1262 36.7916 17.8295 34.6109 16.6489 32.342C16.0838 31.2581 15.5935 30.0633 15.1174 28.9603C14.9333 28.535 14.9366 27.8907 14.5539 27.6717C14.0335 28.4793 13.2653 29.1334 12.8623 30.0869C12.2196 31.6119 12.1355 33.4734 11.8974 35.4014C11.756 35.4522 11.8182 35.4173 11.7357 35.4823C10.6137 35.2109 10.2204 34.0572 9.80279 33.0655C8.74898 30.5614 8.55236 26.5289 9.48064 23.6442C9.72032 22.8983 10.8058 20.5497 10.3663 19.8595C10.1566 19.1726 9.46479 18.774 9.07764 18.2487C8.59826 17.5996 8.12092 16.7444 7.78901 15.9937C6.92573 14.0416 6.52436 11.8487 5.61476 9.87471C5.18008 8.93059 4.44679 7.97509 3.84392 7.1374C3.17564 6.2075 2.42854 5.52175 1.91098 4.39846C1.72695 3.99871 1.47792 3.35887 1.74929 2.94978C1.83664 2.6719 1.95892 2.55612 2.23314 2.46593C2.69951 2.10559 4.00114 2.58659 4.48661 2.78809C5.77848 3.32434 6.85586 3.8354 7.9507 4.56056C8.47436 4.9079 9.00614 5.58106 9.6407 5.76834H10.3659C11.4989 6.02875 12.7684 5.84756 13.8283 6.16972C15.7007 6.73928 17.3781 7.6249 18.9016 8.5865C23.5418 11.5176 27.3378 15.6877 29.9337 20.6659C30.3509 21.4675 30.5321 22.2308 30.9002 23.0811C31.6412 24.7951 32.576 26.5582 33.3137 28.2356C34.0515 29.9065 34.7689 31.5953 35.8113 32.9867C36.359 33.7183 38.4727 34.1104 39.4343 34.5166C40.1086 34.8006 41.2132 35.0976 41.851 35.4831C43.0698 36.218 44.2504 37.0939 45.3948 37.8982C45.9643 38.3012 47.7226 39.1852 47.8099 39.912L47.8107 39.9108ZM11.8149 9.23081C11.2247 9.21984 10.8075 9.29418 10.3663 9.39128V9.47212H10.4455C10.7278 10.0498 11.2247 10.4227 11.5736 10.9208L12.378 12.6124L12.4589 12.5332C12.9573 12.181 13.1856 11.6192 13.1824 10.7607C12.9825 10.5495 12.9541 10.2879 12.7794 10.0356C12.5511 9.70084 12.105 9.51193 11.8145 9.23122L11.8149 9.23081Z" fill="currentColor"/>
</g>
<defs>
<clipPath id="clip0_541_164">
<rect width="52" height="52" fill="currentColor"/>
</clipPath>
</defs>
</svg>
