<svg width="52" height="12" viewBox="0 0 52 12" fill="none" xmlns="http://www.w3.org/2000/svg">
<path d="M9.95312 0.515625C9.34375 0.515625 8.9375 1.00313 8.9375 1.6125V7.34063L2.47812 0.840625C2.15312 0.515625 1.58438 0.434375 1.17813 0.596875C0.771875 0.759375 0.40625 1.16563 0.40625 1.6125V10.0219C0.40625 10.6313 1.01562 11.1187 1.625 11.1187C2.23438 11.1187 2.84375 10.6313 2.84375 10.0219V4.29375L9.38438 10.7938C9.5875 10.9969 9.87187 11.1187 10.1562 11.1187C10.2781 11.1187 10.3188 11.0781 10.4406 11.0375C10.8469 10.875 10.9688 10.4688 10.9688 10.0219V1.65312C10.9688 1.04375 10.5625 0.515625 9.95312 0.515625ZM17.9563 5.30937C17.3875 5.30937 16.8594 5.87812 16.8594 6.44687C16.8594 7.01562 17.3875 7.58438 17.9563 7.58438L20.6375 7.74688L20.0281 9.25H16.575L14.8687 6.04062L16.6156 2.75H20.3125L21.1656 4.375H23.4L21.9375 1.16562L21.6125 0.71875H15.275L14.9906 1.20625L12.5938 5.39062L12.3094 5.91875L12.5938 6.44687L14.95 10.6313L15.275 11.2812H21.4094L21.6938 10.5906L23.4406 6.93438L24.2125 5.1875H22.425L17.9563 5.30937ZM26.4062 0.515625C25.8375 0.515625 25.1875 1.04375 25.1875 1.6125V4.375H27.625V1.65312C27.625 1.04375 26.975 0.515625 26.4062 0.515625ZM38.7563 0.6375C38.35 0.475 37.7812 0.556251 37.4969 0.881251L30.875 7.38125V1.65312C30.875 1.04375 30.4688 0.556249 29.8594 0.556249C29.25 0.556249 28.8438 1.04375 28.8438 1.65312V10.0625C28.8438 10.5094 29.1281 10.9156 29.5344 11.0781C29.6562 11.1187 29.8187 11.1594 29.9406 11.1594C30.225 11.1594 30.5906 11.0375 30.7938 10.8344L37.375 4.33438V10.0625C37.375 10.6719 37.7812 11.1594 38.3906 11.1594C39 11.1594 39.4062 10.6719 39.4062 10.0625V1.65312C39.4062 1.20625 39.1625 0.8 38.7563 0.6375ZM47.6125 5.8375L51.025 2.425C51.4719 1.97813 51.4719 1.2875 51.025 0.881251C50.5781 0.434376 49.8875 0.434376 49.4813 0.881251L46.0688 4.29375L42.6562 0.881251C42.2094 0.434376 41.5187 0.434376 41.1125 0.881251C40.6656 1.32813 40.6656 2.01875 41.1125 2.425L44.525 5.8375L41.1125 9.25C40.6656 9.69687 40.6656 10.3875 41.1125 10.7938C41.3156 10.9969 41.6 11.1187 41.8844 11.1187C42.1688 11.1187 42.4531 10.9969 42.6562 10.7938L46.0688 7.38125L49.4813 10.7938C49.6844 10.9969 49.9688 11.1187 50.2531 11.1187C50.5375 11.1187 50.8219 10.9969 51.025 10.7938C51.4719 10.3469 51.4719 9.65625 51.025 9.25L47.6125 5.8375ZM25.1875 10.0219C25.1875 10.5906 25.7969 11.1187 26.4062 11.1187C26.975 11.1187 27.625 10.5906 27.625 10.0219V5.1875H25.1875V10.0219Z" fill="currentColor"/>
</svg>
