<svg width="52" height="52" viewBox="0 0 52 52" fill="none" xmlns="http://www.w3.org/2000/svg">
<path d="M38.1099 37.4205C38.4288 34.7665 38.3334 34.3769 40.3102 34.8071L40.8119 34.851C42.3321 34.92 44.3207 34.6064 45.4891 34.0637C48.0041 32.8965 49.4951 30.9485 47.0157 31.46C41.3591 32.6272 40.9703 30.7117 40.9703 30.7117C46.9434 21.8493 49.4402 10.5991 47.2847 7.8451C41.4062 0.333943 31.2309 3.88579 31.0607 3.9776L31.0062 3.98776C29.8886 3.75579 28.6378 3.61726 27.2326 3.59451C24.6728 3.55226 22.7305 4.26563 21.2571 5.38282C21.2571 5.38282 3.10458 -2.09584 3.94918 14.7879C4.12874 18.3796 9.09718 41.9652 15.0236 34.8412C17.1897 32.2363 19.2827 30.0337 19.2827 30.0337C20.3219 30.7239 21.5666 31.0765 22.8715 30.9498L22.9726 30.8636C22.941 31.187 22.9548 31.5035 23.0129 31.878C21.4866 33.5839 21.9351 33.8833 18.8829 34.5113C15.7946 35.1475 17.6089 36.2806 18.7931 36.5767C20.2292 36.9359 23.5511 37.4445 25.7961 34.3025L25.7067 34.6609C26.3055 35.1402 26.2653 38.1046 26.3498 40.2224C26.4347 42.3406 26.5765 44.317 27.0083 45.4825C27.4402 46.6477 27.9496 49.649 31.9609 48.7894C35.3133 48.0728 37.8763 47.0389 38.1099 37.4205Z" fill="currentColor"/>
<path d="M30.6548 50.8852C28.8807 50.8852 27.7253 50.1991 27.0237 49.5365C25.9646 48.5371 25.5446 47.2497 25.2935 46.4807L25.1851 46.1597C24.6797 44.7955 24.5082 42.8313 24.4067 40.302C24.3912 39.9222 24.3807 39.531 24.3689 39.1162C24.3604 38.8127 24.3498 38.432 24.3344 38.0339C23.6952 38.3387 23.0168 38.5531 22.3186 38.6709C21.0677 38.8846 19.723 38.8155 18.3211 38.465C17.3318 38.2175 16.304 37.7049 15.7182 36.9131C14.0107 38.4085 12.3821 38.2058 11.4948 37.9096C9.92955 37.3876 8.5288 35.9206 7.21215 33.4258C6.27412 31.6485 5.36696 29.3329 4.51546 26.5427C3.03265 21.684 2.09055 16.5665 2.00687 14.8862C1.74362 9.6273 3.1594 5.86623 6.21399 3.70864C11.0325 0.305079 18.3332 2.30667 20.995 3.21545C22.7833 2.13767 24.8873 1.6132 27.2646 1.65099C28.5415 1.6717 29.7574 1.78383 30.8868 1.98533C32.0649 1.61483 34.3919 1.08305 37.0557 1.11636C41.9636 1.17486 46.0306 3.08749 48.8162 6.64745C50.8044 9.18733 49.8213 14.521 49.0587 17.4744C47.9854 21.6287 46.1049 26.0471 43.795 29.8935C44.4222 29.898 45.331 29.8228 46.6229 29.5559C49.1717 29.0298 49.9171 30.3964 50.1195 31.0082C50.9299 33.4628 47.4069 35.3177 46.308 35.828C44.9 36.4816 42.6042 36.8798 40.7241 36.7936L40.6421 36.7884L40.1481 36.7449L40.0993 37.1568L40.0522 37.5594C39.9258 42.434 39.2295 45.5211 37.7967 47.5609C36.2948 49.6994 34.2075 50.2986 32.3688 50.6927C31.7415 50.8267 31.1716 50.8852 30.6548 50.8852ZM26.9214 33.1439C28.0666 34.0604 28.1669 35.7849 28.2567 39.0077C28.2681 39.4099 28.2786 39.7906 28.2929 40.146C28.3359 41.2226 28.4371 43.7434 28.832 44.8085C28.8876 44.9593 28.9376 45.112 28.9904 45.2741C29.4304 46.6212 29.651 47.2968 31.5534 46.8902C33.1504 46.5477 33.9714 46.2406 34.6141 45.3257C35.5481 43.9956 36.0705 41.3201 36.1664 37.3734L38.1095 37.4205L36.1798 37.1889L36.2367 36.7071C36.4215 35.1187 36.5548 33.9714 37.6163 33.2125C38.4682 32.604 39.4387 32.6629 40.2118 32.8022C39.3624 32.1604 39.1276 31.4076 39.065 31.0988L38.9029 30.3005L39.3583 29.625C41.9815 25.7331 44.1443 20.9499 45.2932 16.5015C46.4738 11.9307 46.1138 9.50339 45.7539 9.04433C40.989 2.95586 32.7263 5.46974 31.8634 5.75492L31.7176 5.83373L30.9863 5.96983L30.6117 5.89223C29.5791 5.67773 28.4318 5.55911 27.2021 5.5392C25.27 5.5067 23.7112 5.96333 22.4331 6.93305L21.5463 7.60539L20.5172 7.18167C18.3186 6.28264 11.8609 4.47524 8.45324 6.88877C6.56174 8.22858 5.70008 10.8538 5.89183 14.6916C5.95521 15.9587 6.81605 20.7553 8.2363 25.4073C10.1989 31.8362 11.9823 33.9718 12.727 34.2201C12.857 34.2639 13.1942 34.0019 13.5297 33.5989C14.9289 31.9216 16.3777 30.2864 17.8742 28.6955L18.9995 27.5112L20.36 28.4151C20.9085 28.7795 21.5134 28.9863 22.1345 29.0253L25.3792 26.258L24.9092 31.055C24.8986 31.1626 24.8934 31.3093 24.9356 31.5815L25.077 32.4906L24.4636 33.1764L24.3929 33.256L26.1755 34.0787L26.9214 33.1439Z" fill="currentColor"/>
<path d="M47.0157 31.46C41.3587 32.6271 40.9699 30.7117 40.9699 30.7117C46.943 21.8489 49.4398 10.5982 47.2851 7.84508C41.4066 0.334333 31.2305 3.88618 31.0606 3.9784L31.0058 3.98815C29.8882 3.75618 28.6374 3.61805 27.2313 3.5953C24.6716 3.55346 22.7301 4.26643 21.2566 5.38361C21.2566 5.38361 3.10374 -2.09463 3.94793 14.7887C4.12749 18.3808 9.09593 41.9664 15.0223 34.8424C17.1884 32.2376 19.281 30.0349 19.281 30.0349C20.3206 30.7251 21.565 31.0777 22.8694 30.951L22.971 30.8648C22.9393 31.1882 22.9539 31.5047 23.0116 31.8792C21.4849 33.5851 21.9334 33.8845 18.8813 34.5126C15.793 35.1487 17.6073 36.2818 18.7919 36.5779C20.2276 36.9371 23.5499 37.4457 25.7944 34.3037L25.7046 34.6621C26.3031 35.1414 26.7231 37.7788 26.6528 40.1696C26.5821 42.5604 26.535 44.202 27.0067 45.4841C27.4779 46.7663 27.9476 49.6506 31.9597 48.791C35.3121 48.0728 37.0492 46.2109 37.2913 43.1056C37.4627 40.8976 37.8507 41.2242 37.8755 39.2502L38.1871 38.3159C38.5462 35.323 38.244 34.3578 40.3097 34.8067L40.8115 34.8506C42.3316 34.9196 44.3211 34.606 45.489 34.0632C48.0037 32.8969 49.4951 30.9485 47.0157 31.46Z" fill="currentColor"/>
<path d="M30.8575 49.6872C27.5133 49.6872 26.4538 47.0389 26.0203 45.9558C25.3858 44.3686 25.2489 38.209 25.3902 33.1577C25.3923 33.0725 25.4113 32.9886 25.4459 32.9108C25.4806 32.8329 25.5304 32.7627 25.5923 32.7042C25.6542 32.6457 25.7271 32.6 25.8068 32.5697C25.8865 32.5395 25.9713 32.5253 26.0565 32.528C26.1416 32.5303 26.2254 32.5494 26.3031 32.5841C26.3808 32.6189 26.4509 32.6686 26.5094 32.7304C26.5678 32.7922 26.6136 32.865 26.6439 32.9445C26.6742 33.0241 26.6886 33.1088 26.6862 33.1939C26.5233 39.0199 26.7544 44.2995 27.224 45.4744C27.9569 47.3062 29.0684 48.9084 32.2108 48.2353C35.1939 47.5954 36.311 46.4644 36.8087 43.5797C37.1906 41.366 37.9458 35.0683 38.0388 33.8256C38.045 33.7407 38.068 33.6578 38.1063 33.5817C38.1446 33.5057 38.1975 33.438 38.2621 33.3824C38.3266 33.3268 38.4015 33.2846 38.4824 33.258C38.5633 33.2314 38.6486 33.2211 38.7335 33.2276C38.9049 33.2406 39.0641 33.321 39.1762 33.4513C39.2883 33.5815 39.3442 33.7509 39.3315 33.9223C39.2344 35.2162 38.4829 41.5017 38.0864 43.8002C37.4989 47.2075 35.98 48.7528 32.4825 49.5028C31.8882 49.6299 31.3483 49.6868 30.8575 49.6872ZM12.7242 36.7518C12.4319 36.7508 12.1416 36.7028 11.8645 36.6096C9.69233 35.8849 7.6233 32.3472 5.71473 26.0938C4.26198 21.3338 3.34142 16.3654 3.26058 14.7505C3.0213 9.96327 4.25386 6.57637 6.92495 4.68446C12.209 0.940462 21.0982 4.50571 21.474 4.65927C21.6332 4.7243 21.76 4.8499 21.8266 5.00844C21.8932 5.16699 21.8941 5.34549 21.829 5.50468C21.764 5.66387 21.6384 5.79071 21.4799 5.8573C21.3213 5.92389 21.1428 5.92477 20.9836 5.85974C20.8979 5.82481 12.374 2.40987 7.67164 5.74396C5.3877 7.36327 4.33917 10.372 4.55489 14.6859C4.62273 16.0465 5.48277 20.8955 6.9542 25.7152C8.65801 31.2979 10.597 34.8205 12.2745 35.3799C12.5377 35.4676 13.3388 35.7346 14.484 34.3574C15.8196 32.7534 17.2052 31.1918 18.6388 29.6749C18.7587 29.5553 18.9207 29.4873 19.0902 29.4856C19.2596 29.484 19.4229 29.5486 19.5453 29.6659C19.6676 29.7831 19.7392 29.9436 19.7447 30.1129C19.7502 30.2822 19.6892 30.447 19.5748 30.5719C19.5553 30.5922 17.6057 32.6304 15.481 35.1865C14.4747 36.3967 13.5103 36.7518 12.7242 36.7518ZM40.9297 31.2898C40.8122 31.2896 40.6969 31.2575 40.5962 31.1969C40.4955 31.1363 40.4132 31.0495 40.3581 30.9457C40.3029 30.842 40.277 30.7252 40.2831 30.6078C40.2892 30.4904 40.327 30.3769 40.3926 30.2794C46.4307 21.3196 48.5501 10.4934 46.735 8.17374C44.4503 5.25443 41.2242 3.72977 37.1459 3.64162C34.1262 3.57662 31.7261 4.34768 31.3337 4.48215L31.235 4.52237C30.8405 4.64627 30.5378 4.43015 30.4237 4.17746C30.3586 4.03269 30.3487 3.8691 30.3959 3.71755C30.4432 3.56601 30.5442 3.43698 30.68 3.35481C30.6987 3.34384 30.758 3.31865 30.8543 3.28331C31.521 3.03915 33.9576 2.3079 36.9757 2.34243C41.4883 2.39037 45.216 4.13034 47.7551 7.37506C48.9564 8.91027 48.9592 12.4471 47.7628 17.0791C46.5433 21.8018 44.2484 26.8771 41.4672 31.0042C41.3429 31.1898 41.1381 31.2898 40.9297 31.2898ZM41.2385 35.4376C40.2074 35.4376 39.2832 35.2922 38.7299 34.9607C38.1611 34.6198 38.0526 34.1567 38.0384 33.9109C37.8832 31.185 39.3872 30.7105 40.1542 30.4939C40.0473 30.3322 39.8954 30.1421 39.7382 29.9459C39.2909 29.3869 38.6783 28.6215 38.2062 27.4767C38.1323 27.298 37.9007 26.8824 37.6326 26.401C36.1786 23.7936 33.1533 18.3682 35.0968 15.5898C35.9962 14.3041 37.7874 13.7979 40.4264 14.0802C39.65 11.715 35.9531 4.3164 27.181 4.17259C24.5428 4.12871 22.3791 4.93999 20.7533 6.58165C17.1133 10.2578 17.2449 16.9093 17.247 16.976C17.2492 17.0611 17.2347 17.1458 17.2042 17.2252C17.1737 17.3047 17.1278 17.3774 17.0692 17.4391C17.0106 17.5009 16.9405 17.5505 16.8627 17.5851C16.785 17.6198 16.7011 17.6388 16.616 17.641C16.531 17.6432 16.4463 17.6287 16.3668 17.5982C16.2873 17.5677 16.2146 17.5219 16.1529 17.4633C16.0911 17.4047 16.0415 17.3345 16.0069 17.2568C15.9722 17.179 15.9533 17.0952 15.951 17.0101C15.9429 16.7147 15.8072 9.73456 19.8323 5.66921C21.7161 3.76674 24.1959 2.82749 27.2025 2.87665C32.8145 2.96887 36.4268 5.82196 38.4686 8.19893C40.6945 10.7896 41.7857 13.6472 41.8755 14.601C41.9425 15.3103 41.4335 15.4521 41.3307 15.4732L41.0967 15.4785C38.5068 15.0637 36.8453 15.3518 36.1583 16.3333C34.68 18.4462 37.542 23.5783 38.764 25.7701C39.076 26.3291 39.301 26.7333 39.4042 26.9827C39.8056 27.9561 40.3293 28.6102 40.7497 29.1358C41.1198 29.5982 41.4404 29.9991 41.5549 30.4696C41.6081 30.563 42.3634 31.6802 46.8447 30.7552C47.968 30.5236 48.6415 30.7214 48.8475 31.3442C49.2525 32.5691 46.98 33.9978 45.7218 34.582C44.5945 35.1061 42.7952 35.4376 41.2385 35.4376ZM39.3307 33.8041C39.4729 33.9475 40.1842 34.1949 41.6573 34.1315C42.967 34.0754 44.3483 33.7907 45.177 33.4059C46.237 32.9136 46.9446 32.3631 47.3111 31.9873L47.108 32.0247C44.2427 32.6162 42.2159 32.5374 41.0841 31.7903C41.008 31.74 40.9348 31.6856 40.8647 31.6274C40.742 31.6757 40.6287 31.7074 40.5478 31.7302C39.906 31.9101 39.2421 32.0966 39.3307 33.8041ZM20.8211 37.4258C20.1094 37.4258 19.3603 37.3287 18.5953 37.1373C17.8027 36.9391 16.4665 36.3423 16.4869 35.362C16.51 34.2623 18.1094 33.9324 18.7115 33.8085C20.8865 33.3604 21.0283 33.1809 21.708 32.3176C21.9062 32.0661 22.1528 31.7529 22.4892 31.3775C22.9885 30.8185 23.5341 30.5354 24.111 30.5354C24.5127 30.5354 24.8422 30.6715 25.06 30.7621C25.7538 31.0497 26.3327 31.7452 26.5708 32.5768C26.7857 33.3271 26.6829 34.0494 26.2824 34.6105C24.9673 36.452 23.0787 37.4258 20.8211 37.4258ZM17.8872 35.4177C18.0826 35.5688 18.4742 35.7707 18.9101 35.8796C19.5727 36.0453 20.2154 36.1294 20.8215 36.1294C22.6684 36.1294 24.1512 35.3649 25.2281 33.8569C25.4528 33.5424 25.3854 33.1431 25.3252 32.9331C25.1993 32.4931 24.8865 32.0929 24.5643 31.9593C24.3896 31.887 24.2446 31.8317 24.1114 31.8317C24.0399 31.8317 23.8221 31.8317 23.4557 32.2416C23.2028 32.526 22.9597 32.819 22.7269 33.1199C21.8802 34.1949 21.4923 34.5597 18.9735 35.0785C18.3589 35.2044 18.0436 35.3328 17.8872 35.4177ZM22.8715 32.4277C22.7167 32.4274 22.5672 32.3719 22.4498 32.271C22.3325 32.1701 22.2551 32.0306 22.2316 31.8776C22.2155 31.77 22.2047 31.6617 22.1991 31.553C20.5481 31.5222 18.9552 30.8136 17.7458 29.5518C16.2167 27.9565 15.5208 25.7461 15.8369 23.4877C16.1801 21.0352 16.0518 18.8703 15.9827 17.7072C15.9636 17.3838 15.9498 17.1502 15.9506 16.9886C15.9518 16.7834 15.9559 16.2394 17.7743 15.3177C18.421 14.9898 19.7178 14.4178 21.1344 14.2712C23.4813 14.0286 25.0283 15.0739 25.4914 17.2148C26.7414 22.995 25.5905 25.5515 24.75 27.4186C24.5936 27.7664 24.4457 28.0946 24.3275 28.4127L24.2231 28.693C23.779 29.8837 23.3951 30.9124 23.513 31.6806C23.5259 31.7647 23.5221 31.8506 23.5019 31.9333C23.4816 32.0159 23.4453 32.0938 23.3949 32.1624C23.3445 32.2311 23.2811 32.2891 23.2083 32.3332C23.1355 32.3773 23.0548 32.4067 22.9706 32.4196L22.8715 32.4277ZM17.251 17.1681L17.2762 17.6308C17.3477 18.839 17.481 21.0872 17.1202 23.6677C16.8598 25.5304 17.4285 27.3483 18.6814 28.6548C19.6715 29.6875 20.9743 30.2575 22.3133 30.2575H22.3409C22.4908 29.6258 22.7399 28.9587 23.008 28.2401L23.1116 27.9614C23.2452 27.6022 23.4016 27.2545 23.5674 26.8864C24.3762 25.0892 25.3833 22.852 24.2235 17.4891C23.994 16.4267 23.437 15.8121 22.5217 15.6093C20.6416 15.1941 17.8397 16.6083 17.251 17.1681ZM21.1632 16.8931C21.1307 17.1222 21.5829 17.734 22.1727 17.8157C22.7614 17.8981 23.2651 17.4196 23.2972 17.1905C23.3293 16.9613 22.8776 16.7086 22.2877 16.6266C21.6982 16.5445 21.1945 16.664 21.1632 16.8931ZM22.308 18.0411L22.1427 18.0298C21.777 17.979 21.4074 17.7486 21.1543 17.4131C21.0653 17.2953 20.9203 17.067 20.9491 16.863C20.9901 16.564 21.355 16.3849 21.9241 16.3849C22.0513 16.3849 22.1837 16.3942 22.317 16.4129C22.6281 16.456 22.917 16.5457 23.1303 16.6648C23.5 16.8711 23.5272 17.1015 23.5105 17.2205C23.465 17.5508 22.9397 18.0411 22.308 18.0411ZM21.3781 16.9313C21.3964 17.0726 21.7466 17.539 22.2024 17.602L22.3084 17.6093C22.7293 17.6093 23.0437 17.2782 23.0807 17.1697C23.0417 17.0958 22.7711 16.9122 22.258 16.8407C22.1476 16.8248 22.0361 16.8168 21.9245 16.8167C21.5946 16.8167 21.4195 16.8911 21.3781 16.9313ZM39.0926 16.4255C39.1247 16.6546 38.673 17.2664 38.0835 17.3485C37.4945 17.4306 36.9903 16.9524 36.9578 16.7233C36.9269 16.4941 37.3787 16.2411 37.9677 16.1594C38.5568 16.0769 39.0601 16.1968 39.0926 16.4255ZM37.9474 17.4655C37.3803 17.4655 36.8908 17.0243 36.8505 16.7379C36.8038 16.3942 37.3697 16.133 37.9523 16.0521C38.0807 16.0343 38.2078 16.0253 38.3301 16.0253C38.833 16.0253 39.1662 16.1728 39.1995 16.4109C39.221 16.5648 39.1028 16.8025 38.8993 17.017C38.7648 17.158 38.4825 17.4021 38.0977 17.4553L37.9474 17.4655ZM38.3305 16.2415C38.2184 16.2415 38.1014 16.25 37.9828 16.2662C37.3974 16.3479 37.048 16.5827 37.065 16.7086C37.0845 16.8472 37.4583 17.2498 37.9478 17.2498L38.0685 17.2412C38.3882 17.197 38.6283 16.9881 38.7429 16.8679C38.9228 16.679 38.9943 16.5011 38.9858 16.4405C38.9744 16.3601 38.7583 16.2415 38.3305 16.2415ZM39.9413 29.5839C39.8239 29.584 39.7086 29.5521 39.6079 29.4917C39.5072 29.4313 39.4248 29.3447 39.3695 29.2411C39.3143 29.1374 39.2882 29.0207 39.2942 28.9034C39.3002 28.7861 39.3379 28.6727 39.4034 28.5752C40.7839 26.5135 40.5312 24.4111 40.287 22.3779C40.1826 21.5117 40.0754 20.616 40.103 19.7563C40.1314 18.8719 40.244 18.1423 40.3524 17.4366C40.4812 16.6006 40.6031 15.8108 40.5527 14.8732C40.5481 14.7882 40.5603 14.7032 40.5886 14.6229C40.6169 14.5426 40.6607 14.4687 40.7175 14.4054C40.7744 14.342 40.8432 14.2905 40.9199 14.2538C40.9967 14.217 41.0799 14.1957 41.1649 14.1911C41.2499 14.1865 41.335 14.1987 41.4152 14.227C41.4955 14.2553 41.5694 14.2991 41.6328 14.356C41.6961 14.4128 41.7476 14.4816 41.7844 14.5583C41.8211 14.6351 41.8424 14.7184 41.847 14.8033C41.9047 15.875 41.767 16.7688 41.6337 17.6337C41.531 18.3011 41.4245 18.9914 41.3989 19.7978C41.3741 20.5591 41.4712 21.3675 41.574 22.2231C41.834 24.3851 42.1285 26.8357 40.4808 29.2963C40.4215 29.3849 40.3412 29.4575 40.2471 29.5077C40.153 29.5579 40.0479 29.5841 39.9413 29.5839Z" fill="#16213E"/>
</svg>
